<?xml version="1.0" encoding="UTF-8" standalone="no"?>
<!DOCTYPE svg PUBLIC "-//W3C//DTD SVG 1.1//EN" "http://www.w3.org/Graphics/SVG/1.1/DTD/svg11.dtd">
<svg width="100%" height="100%" viewBox="0 0 128 128" version="1.1" xmlns="http://www.w3.org/2000/svg" xmlns:xlink="http://www.w3.org/1999/xlink" xml:space="preserve" xmlns:serif="http://www.serif.com/" style="fill-rule:evenodd;clip-rule:evenodd;stroke-linejoin:round;stroke-miterlimit:2;">
    <path d="M128,32C128,14.339 113.661,0 96,0L32,0C14.339,0 0,14.339 0,32L0,96C0,113.661 14.339,128 32,128L96,128C113.661,128 128,113.661 128,96L128,32Z" style="fill:rgb(13,110,253);"/>
    <g transform="matrix(7.66668,0,0,7.66668,-473.05,-397.023)">
        <path d="M76.425,60.883L74.55,60.883L74.55,63.133L73.8,62.634L73.05,63.133L73.05,60.883L71.175,60.883C70.969,60.883 70.8,61.052 70.8,61.258L70.8,65.758C70.8,65.965 70.969,66.133 71.175,66.133L76.425,66.133C76.631,66.133 76.8,65.965 76.8,65.758L76.8,61.258C76.8,61.052 76.631,60.883 76.425,60.883ZM67.425,59.383L72.675,59.383C72.881,59.383 73.05,59.215 73.05,59.008L73.05,54.508C73.05,54.302 72.881,54.133 72.675,54.133L70.8,54.133L70.8,56.383L70.05,55.884L69.3,56.383L69.3,54.133L67.425,54.133C67.219,54.133 67.05,54.302 67.05,54.508L67.05,59.008C67.05,59.215 67.219,59.383 67.425,59.383ZM68.925,60.883L67.05,60.883L67.05,63.133L66.3,62.634L65.55,63.133L65.55,60.883L63.675,60.883C63.469,60.883 63.3,61.052 63.3,61.258L63.3,65.758C63.3,65.965 63.469,66.133 63.675,66.133L68.925,66.133C69.131,66.133 69.3,65.965 69.3,65.758L69.3,61.258C69.3,61.052 69.131,60.883 68.925,60.883Z" style="fill:white;fill-rule:nonzero;"/>
    </g>
</svg>
